<svg xmlns="http://www.w3.org/2000/svg" viewBox="0 0 198.65 68.97"><defs><style>.cls-1{fill:#666;}.cls-2{fill:#b3b3b3;}.cls-3{fill:gray;}.cls-4{fill:#444;}.cls-5{fill:#c1272d;}.cls-6{fill:#ccc;}.cls-7{fill:#999;}.cls-8,.cls-9{fill:#ef1209;}.cls-9{font-size:13.85px;font-family:Orbitron-Bold, Orbitron;font-weight:700;}</style></defs><title>Asset 4</title><g id="Layer_2" data-name="Layer 2"><g id="Layer_1-2" data-name="Layer 1"><path class="cls-1" d="M79.4,1.62H60.29V24.94H79.4a4.2,4.2,0,0,0,4.21-4.21V5.83a4.06,4.06,0,0,0-1.23-3A4.06,4.06,0,0,0,79.4,1.62Zm.71,19.11a.72.72,0,0,1-.71.71H64.5a.72.72,0,0,1-.71-.71V5.83a.72.72,0,0,1,.71-.71H79.4a.72.72,0,0,1,.71.71Z"/><path class="cls-1" d="M101.35,6.15H86.46v3.5h14.9a.72.72,0,0,1,.71.71V13.8H86.46v6.93a4.2,4.2,0,0,0,4.21,4.21h14.9V10.36a4.2,4.2,0,0,0-4.21-4.21Zm.71,15.29H90.67a.72.72,0,0,1-.71-.71V17.29h12.11Z"/><path class="cls-1" d="M135.81,6.15h-24V0h-3.5V20.73a4.2,4.2,0,0,0,4.21,4.21h7v-3.5h-7a.72.72,0,0,1-.71-.71V9.65h24a.72.72,0,0,1,.71.71V13.8H120.91v6.93a4.2,4.2,0,0,0,4.21,4.21H140V10.36a4.2,4.2,0,0,0-4.21-4.21Zm.71,15.29h-11.4a.72.72,0,0,1-.71-.71V17.29h12.11Z"/><path class="cls-1" d="M79.4,28.86H64.5a4.2,4.2,0,0,0-4.21,4.21v5a4.2,4.2,0,0,0,4.21,4.21H79.4a.72.72,0,0,1,.71.71v5a.72.72,0,0,1-.71.71H64.5a.72.72,0,0,1-.71-.71V46.6h-3.5V48a4.2,4.2,0,0,0,4.21,4.21H79.4A4.2,4.2,0,0,0,83.61,48V43a4.2,4.2,0,0,0-4.21-4.21H64.5a.72.72,0,0,1-.71-.71v-5a.72.72,0,0,1,.71-.71H79.4a.72.72,0,0,1,.71.71v1.36h3.5V33.07a4.2,4.2,0,0,0-4.21-4.21Z"/><path class="cls-1" d="M90,48.47a.68.68,0,0,1-.21-.5V37.6a.72.72,0,0,1,.71-.71h14.83v-3.5H90.47a4.2,4.2,0,0,0-4.21,4.21V48a4.2,4.2,0,0,0,4.21,4.21h14.9v-3.5H90.47A.68.68,0,0,1,90,48.47Z"/><rect class="cls-1" x="108.16" y="33.39" width="3.5" height="18.78"/><rect class="cls-1" x="108.16" y="27.24" width="3.5" height="3.5"/><path class="cls-1" d="M151,33.39h-14.9V48.68H118.42a.72.72,0,0,1-.71-.71V44.53h15.61V37.6a4.2,4.2,0,0,0-4.21-4.21H118.42a4.2,4.2,0,0,0-4.21,4.21V48a4.2,4.2,0,0,0,4.21,4.21h21.15V37.6a.72.72,0,0,1,.71-.71H151a.72.72,0,0,1,.71.71V52.17h3.5V37.6A4.2,4.2,0,0,0,151,33.39ZM117.71,37.6a.72.72,0,0,1,.71-.71h10.69a.72.72,0,0,1,.71.71V41H117.71Z"/><path class="cls-1" d="M161.05,48.47a.68.68,0,0,1-.21-.5V37.6a.72.72,0,0,1,.71-.71h14.83v-3.5H161.56a4.2,4.2,0,0,0-4.21,4.21V48a4.2,4.2,0,0,0,4.21,4.21h14.9v-3.5h-14.9A.68.68,0,0,1,161.05,48.47Z"/><path class="cls-1" d="M193.61,33.39H182.93a4.2,4.2,0,0,0-4.21,4.21V48a4.2,4.2,0,0,0,4.21,4.21h14.9v-3.5h-14.9a.72.72,0,0,1-.71-.71V44.53h15.61V37.6a4.2,4.2,0,0,0-4.21-4.21Zm.71,7.64H182.22V37.6a.72.72,0,0,1,.71-.71h10.69a.72.72,0,0,1,.71.71Z"/><path class="cls-2" d="M33.25,3.31V14.55a2.12,2.12,0,0,1-2.11,2.12H19.94a2.12,2.12,0,0,1-2.11-2.12V3.31a2.12,2.12,0,0,1,2.11-2.12h11.2A2.12,2.12,0,0,1,33.25,3.31Z"/><path class="cls-2" d="M15.54,21V32.26a2.12,2.12,0,0,1-2.11,2.12H2.23A2.12,2.12,0,0,1,.12,32.26V21a2.12,2.12,0,0,1,2.11-2.12h11.2A2.12,2.12,0,0,1,15.54,21Z"/><path class="cls-3" d="M51,3.31V14.55a2.12,2.12,0,0,1-2.11,2.12H37.64a2.12,2.12,0,0,1-2.11-2.12V3.31a2.12,2.12,0,0,1,2.11-2.12h11.2A2.12,2.12,0,0,1,51,3.31Z"/><path class="cls-3" d="M33.25,21V32.26a2.12,2.12,0,0,1-2.11,2.12H19.94a2.12,2.12,0,0,1-2.11-2.12V21a2.12,2.12,0,0,1,2.11-2.12h11.2A2.12,2.12,0,0,1,33.25,21Z"/><path class="cls-3" d="M15.44,38.83V50.07a2.12,2.12,0,0,1-2.11,2.12H2.12A2.12,2.12,0,0,1,0,50.07V38.83a2.12,2.12,0,0,1,2.11-2.12h11.2A2.12,2.12,0,0,1,15.44,38.83Z"/><path class="cls-4" d="M51,21V32.26a2.12,2.12,0,0,1-2.11,2.12H37.64a2.12,2.12,0,0,1-2.11-2.12V21a2.12,2.12,0,0,1,2.11-2.12h11.2A2.12,2.12,0,0,1,51,21Z"/><rect class="cls-5" x="0.11" y="1.25" width="7.67" height="7.67" rx="2.13" ry="2.13"/><path class="cls-4" d="M33.25,38.72V50a2.12,2.12,0,0,1-2.11,2.12H19.94A2.12,2.12,0,0,1,17.82,50V38.72a2.12,2.12,0,0,1,2.11-2.12h11.2A2.12,2.12,0,0,1,33.25,38.72Z"/><path class="cls-4" d="M51,38.94V50.18a2.12,2.12,0,0,1-2.11,2.12H37.64a2.12,2.12,0,0,1-2.11-2.12V38.94a2.12,2.12,0,0,1,2.11-2.12h11.2A2.12,2.12,0,0,1,51,38.94Z"/><rect class="cls-6" y="18.87" width="15.05" height="15.05" rx="2.06" ry="2.06"/><rect class="cls-7" x="17.73" y="18.87" width="15.05" height="15.05" rx="2.06" ry="2.06"/><rect class="cls-6" x="17.73" y="1.14" width="15.05" height="15.05" rx="2.06" ry="2.06"/><rect class="cls-7" y="36.61" width="15.05" height="15.05" rx="2.06" ry="2.06"/><rect class="cls-1" x="17.73" y="36.61" width="15.05" height="15.05" rx="2.06" ry="2.06"/><rect class="cls-1" x="35.47" y="18.87" width="15.05" height="15.05" rx="2.06" ry="2.06"/><rect class="cls-7" x="35.47" y="1.14" width="15.05" height="15.05" rx="2.06" ry="2.06"/><rect class="cls-1" x="35.47" y="36.81" width="15.05" height="15.05" rx="2.06" ry="2.06"/><rect class="cls-8" y="1.14" width="7.42" height="7.42" rx="2.06" ry="2.06"/><text class="cls-9" transform="translate(133.23 65.78)">@UL-FRI</text></g></g></svg>