<svg xmlns="http://www.w3.org/2000/svg" viewBox="0 0 198.76 69.02"><defs><style>.cls-1{fill:#4d4d4d;}.cls-2{fill:#b3b3b3;}.cls-3{fill:gray;}.cls-4{fill:#444;}.cls-5{fill:#c1272d;}.cls-6{fill:#ccc;}.cls-7{fill:#999;}.cls-8{fill:#666;}.cls-10,.cls-9{fill:#ef1209;}.cls-10{font-size:13.86px;font-family:Orbitron-Bold, Orbitron;font-weight:700;}</style></defs><title>Asset 1</title><g id="Layer_2" data-name="Layer 2"><g id="Layer_1-2" data-name="Layer 1"><path class="cls-1" d="M79.41,1.62H60.29V25H79.41a4.2,4.2,0,0,0,4.21-4.21V5.83a4.06,4.06,0,0,0-1.23-3A4.06,4.06,0,0,0,79.41,1.62Zm.71,19.12a.72.72,0,0,1-.71.71H64.51a.72.72,0,0,1-.71-.71V5.83a.72.72,0,0,1,.71-.71H79.41a.72.72,0,0,1,.71.71Z"/><path class="cls-1" d="M101.39,6.16H86.48v3.5h14.91a.72.72,0,0,1,.71.71v3.44H86.48v6.94A4.21,4.21,0,0,0,90.69,25H105.6V10.37a4.2,4.2,0,0,0-4.21-4.21Zm.71,15.3H90.69a.72.72,0,0,1-.71-.71V17.31H102.1Z"/><path class="cls-1" d="M135.87,6.16h-24V0h-3.5V20.74A4.2,4.2,0,0,0,112.57,25h7v-3.5h-7a.72.72,0,0,1-.71-.71V9.66h24a.72.72,0,0,1,.71.71v3.44H121v6.94A4.21,4.21,0,0,0,125.18,25h14.91V10.37a4.2,4.2,0,0,0-4.21-4.21Zm.71,15.3H125.18a.72.72,0,0,1-.71-.71V17.31h12.12Z"/><path class="cls-1" d="M79.41,28.88H64.51a4.21,4.21,0,0,0-4.21,4.21v5a4.21,4.21,0,0,0,4.21,4.21H79.41a.72.72,0,0,1,.71.71v5a.72.72,0,0,1-.71.71H64.51a.72.72,0,0,1-.71-.71V46.64h-3.5V48a4.21,4.21,0,0,0,4.21,4.21H79.41A4.2,4.2,0,0,0,83.63,48V43a4.2,4.2,0,0,0-4.21-4.21H64.51a.72.72,0,0,1-.71-.71v-5a.72.72,0,0,1,.71-.71H79.41a.72.72,0,0,1,.71.71v1.36h3.5V33.09a4.2,4.2,0,0,0-4.21-4.21Z"/><path class="cls-1" d="M90,48.51a.69.69,0,0,1-.21-.5V37.63a.72.72,0,0,1,.71-.71h14.84v-3.5H90.5a4.21,4.21,0,0,0-4.21,4.21V48a4.21,4.21,0,0,0,4.21,4.21h14.91v-3.5H90.5A.69.69,0,0,1,90,48.51Z"/><rect class="cls-1" x="108.19" y="33.42" width="3.5" height="18.8"/><rect class="cls-1" x="108.19" y="27.26" width="3.5" height="3.5"/><path class="cls-1" d="M151,33.42H136.13v15.3H118.47a.72.72,0,0,1-.71-.71V44.57h15.62V37.63a4.21,4.21,0,0,0-4.21-4.21H118.47a4.21,4.21,0,0,0-4.21,4.21V48a4.21,4.21,0,0,0,4.21,4.21h21.16V37.63a.72.72,0,0,1,.71-.71H151a.72.72,0,0,1,.71.71V52.22h3.5V37.63A4.21,4.21,0,0,0,151,33.42Zm-33.28,4.21a.72.72,0,0,1,.71-.71h10.69a.72.72,0,0,1,.71.71v3.44H117.75Z"/><path class="cls-1" d="M161.13,48.51a.69.69,0,0,1-.21-.5V37.63a.72.72,0,0,1,.71-.71h14.84v-3.5H161.64a4.21,4.21,0,0,0-4.21,4.21V48a4.21,4.21,0,0,0,4.21,4.21h14.91v-3.5H161.64A.69.69,0,0,1,161.13,48.51Z"/><path class="cls-1" d="M193.72,33.42H183a4.21,4.21,0,0,0-4.21,4.21V48A4.21,4.21,0,0,0,183,52.22h14.91v-3.5H183a.72.72,0,0,1-.71-.71V44.57h15.62V37.63a4.21,4.21,0,0,0-4.21-4.21Zm.71,7.65H182.31V37.63a.72.72,0,0,1,.71-.71h10.69a.72.72,0,0,1,.71.71Z"/><path class="cls-2" d="M33.25,3.31V14.55a2.12,2.12,0,0,1-2.11,2.12H19.94a2.12,2.12,0,0,1-2.11-2.12V3.31a2.12,2.12,0,0,1,2.11-2.12h11.2A2.12,2.12,0,0,1,33.25,3.31Z"/><path class="cls-2" d="M15.54,21V32.26a2.12,2.12,0,0,1-2.11,2.12H2.23A2.12,2.12,0,0,1,.12,32.26V21a2.12,2.12,0,0,1,2.11-2.12h11.2A2.12,2.12,0,0,1,15.54,21Z"/><path class="cls-3" d="M51,3.31V14.55a2.12,2.12,0,0,1-2.11,2.12H37.64a2.12,2.12,0,0,1-2.11-2.12V3.31a2.12,2.12,0,0,1,2.11-2.12h11.2A2.12,2.12,0,0,1,51,3.31Z"/><path class="cls-3" d="M33.25,21V32.26a2.12,2.12,0,0,1-2.11,2.12H19.94a2.12,2.12,0,0,1-2.11-2.12V21a2.12,2.12,0,0,1,2.11-2.12h11.2A2.12,2.12,0,0,1,33.25,21Z"/><path class="cls-3" d="M15.44,38.83V50.07a2.12,2.12,0,0,1-2.11,2.12H2.12A2.12,2.12,0,0,1,0,50.07V38.83a2.12,2.12,0,0,1,2.11-2.12h11.2A2.12,2.12,0,0,1,15.44,38.83Z"/><path class="cls-4" d="M51,21V32.26a2.12,2.12,0,0,1-2.11,2.12H37.64a2.12,2.12,0,0,1-2.11-2.12V21a2.12,2.12,0,0,1,2.11-2.12h11.2A2.12,2.12,0,0,1,51,21Z"/><rect class="cls-5" x="0.11" y="1.25" width="7.67" height="7.67" rx="2.13" ry="2.13"/><path class="cls-4" d="M33.25,38.72V50a2.12,2.12,0,0,1-2.11,2.12H19.94A2.12,2.12,0,0,1,17.82,50V38.72a2.12,2.12,0,0,1,2.11-2.12h11.2A2.12,2.12,0,0,1,33.25,38.72Z"/><path class="cls-4" d="M51,38.94V50.18a2.12,2.12,0,0,1-2.11,2.12H37.64a2.12,2.12,0,0,1-2.11-2.12V38.94a2.12,2.12,0,0,1,2.11-2.12h11.2A2.12,2.12,0,0,1,51,38.94Z"/><rect class="cls-6" y="18.87" width="15.05" height="15.05" rx="2.06" ry="2.06"/><rect class="cls-7" x="17.73" y="18.87" width="15.05" height="15.05" rx="2.06" ry="2.06"/><rect class="cls-6" x="17.73" y="1.14" width="15.05" height="15.05" rx="2.06" ry="2.06"/><rect class="cls-7" y="36.61" width="15.05" height="15.05" rx="2.06" ry="2.06"/><rect class="cls-8" x="17.73" y="36.61" width="15.05" height="15.05" rx="2.06" ry="2.06"/><rect class="cls-8" x="35.47" y="18.87" width="15.05" height="15.05" rx="2.06" ry="2.06"/><rect class="cls-7" x="35.47" y="1.14" width="15.05" height="15.05" rx="2.06" ry="2.06"/><rect class="cls-8" x="35.47" y="36.81" width="15.05" height="15.05" rx="2.06" ry="2.06"/><rect class="cls-9" y="1.14" width="7.42" height="7.42" rx="2.06" ry="2.06"/><text class="cls-10" transform="translate(133.29 65.83)">@UL-FRI</text></g></g></svg>