<svg xmlns="http://www.w3.org/2000/svg" viewBox="0 0 83.97 134.97"><defs><style>.cls-1{fill:#666;}.cls-2{fill:#b3b3b3;}.cls-3{fill:gray;}.cls-4{fill:#444;}.cls-5{fill:#c1272d;}.cls-6{fill:#ccc;}.cls-7{fill:#999;}.cls-8,.cls-9{fill:#ef1209;}.cls-9{font-size:17.78px;font-family:Orbitron-Bold, Orbitron;font-weight:700;}</style></defs><title>Asset 3</title><g id="Layer_2" data-name="Layer 2"><g id="Layer_1-2" data-name="Layer 1"><path class="cls-1" d="M20.12,72.78H0V97.33H20.12a4.42,4.42,0,0,0,4.43-4.43V77.21a4.42,4.42,0,0,0-4.43-4.43Zm.75,20.12a.76.76,0,0,1-.75.75H4.43a.76.76,0,0,1-.75-.75V77.21a.76.76,0,0,1,.75-.75H20.12a.76.76,0,0,1,.75.75Z"/><path class="cls-1" d="M43.25,77.55H27.56v3.68H43.25A.76.76,0,0,1,44,82V85.6H27.56v7.3A4.43,4.43,0,0,0,32,97.33H47.68V82a4.42,4.42,0,0,0-4.43-4.43ZM44,93.65H32a.76.76,0,0,1-.75-.75V89.28H44Z"/><path class="cls-1" d="M79.54,77.55H54.27V71.07H50.58V92.9A4.42,4.42,0,0,0,55,97.33h7.37V93.65H55a.76.76,0,0,1-.75-.75V81.23H79.54a.76.76,0,0,1,.75.75V85.6H63.85v7.3a4.43,4.43,0,0,0,4.43,4.43H84V82a4.42,4.42,0,0,0-4.43-4.43Zm.75,16.1h-12a.76.76,0,0,1-.75-.75V89.28H80.29Z"/><path class="cls-1" d="M11.67,100.75H2.57a2.48,2.48,0,0,0-1.82.75A2.48,2.48,0,0,0,0,103.32v3a2.48,2.48,0,0,0,.75,1.82,2.48,2.48,0,0,0,1.82.75h9.1a.44.44,0,0,1,.43.44v3a.44.44,0,0,1-.43.44H2.57a.44.44,0,0,1-.43-.44v-.83H0v.83a2.48,2.48,0,0,0,.75,1.82,2.48,2.48,0,0,0,1.82.75h9.1a2.57,2.57,0,0,0,2.57-2.57v-3a2.57,2.57,0,0,0-2.57-2.57H2.57a.44.44,0,0,1-.43-.43v-3a.44.44,0,0,1,.43-.44h9.1a.44.44,0,0,1,.43.44v.83h2.14v-.83a2.57,2.57,0,0,0-2.57-2.57Z"/><path class="cls-1" d="M18.12,112.72a.42.42,0,0,1-.13-.31v-6.33a.44.44,0,0,1,.43-.43h9.06v-2.14H18.43a2.57,2.57,0,0,0-2.57,2.57v6.33A2.57,2.57,0,0,0,18.43,115h9.1v-2.14h-9.1A.42.42,0,0,1,18.12,112.72Z"/><rect class="cls-1" x="29.22" y="103.52" width="2.14" height="11.47"/><rect class="cls-1" x="29.22" y="99.76" width="2.14" height="2.14"/><path class="cls-1" d="M55.36,103.52H46.27v9.33H35.49a.44.44,0,0,1-.43-.44v-2.1h9.53v-4.23A2.57,2.57,0,0,0,42,103.52H35.49a2.57,2.57,0,0,0-2.57,2.57v6.33A2.57,2.57,0,0,0,35.49,115H48.4v-8.9a.44.44,0,0,1,.43-.43h6.52a.44.44,0,0,1,.44.43V115h2.14v-8.9a2.57,2.57,0,0,0-2.57-2.57Zm-20.31,2.57a.44.44,0,0,1,.43-.43H42a.44.44,0,0,1,.44.43v2.1H35.06Z"/><path class="cls-1" d="M61.52,112.72a.42.42,0,0,1-.13-.31v-6.33a.44.44,0,0,1,.43-.43h9.06v-2.14H61.83a2.57,2.57,0,0,0-2.57,2.57v6.33A2.57,2.57,0,0,0,61.83,115h9.1v-2.14h-9.1A.42.42,0,0,1,61.52,112.72Z"/><path class="cls-1" d="M81.4,103.52H74.88a2.57,2.57,0,0,0-2.57,2.57v6.33A2.57,2.57,0,0,0,74.88,115H84v-2.14h-9.1a.44.44,0,0,1-.43-.44v-2.1H84v-4.23a2.57,2.57,0,0,0-2.57-2.57Zm.44,4.67H74.44v-2.1a.44.44,0,0,1,.43-.43H81.4a.44.44,0,0,1,.44.43Z"/><path class="cls-2" d="M49.82,2.19V13.53a2.14,2.14,0,0,1-2.13,2.14H36.39a2.14,2.14,0,0,1-2.13-2.14V2.19A2.14,2.14,0,0,1,36.39.05h11.3A2.14,2.14,0,0,1,49.82,2.19Z"/><path class="cls-2" d="M32,20.06V31.4a2.14,2.14,0,0,1-2.13,2.14H18.52a2.14,2.14,0,0,1-2.13-2.14V20.06a2.14,2.14,0,0,1,2.13-2.14h11.3A2.14,2.14,0,0,1,32,20.06Z"/><path class="cls-3" d="M67.69,2.19V13.53a2.14,2.14,0,0,1-2.13,2.14H54.25a2.14,2.14,0,0,1-2.13-2.14V2.19A2.14,2.14,0,0,1,54.25.05h11.3A2.14,2.14,0,0,1,67.69,2.19Z"/><path class="cls-3" d="M49.82,20.06V31.4a2.14,2.14,0,0,1-2.13,2.14H36.39a2.14,2.14,0,0,1-2.13-2.14V20.06a2.14,2.14,0,0,1,2.13-2.14h11.3A2.14,2.14,0,0,1,49.82,20.06Z"/><path class="cls-3" d="M31.84,38V49.38a2.14,2.14,0,0,1-2.13,2.14H18.41a2.14,2.14,0,0,1-2.13-2.14V38a2.14,2.14,0,0,1,2.13-2.14h11.3A2.14,2.14,0,0,1,31.84,38Z"/><path class="cls-4" d="M67.69,20.06V31.4a2.14,2.14,0,0,1-2.13,2.14H54.25a2.14,2.14,0,0,1-2.13-2.14V20.06a2.14,2.14,0,0,1,2.13-2.14h11.3A2.14,2.14,0,0,1,67.69,20.06Z"/><rect class="cls-5" x="16.38" y="0.11" width="7.74" height="7.74" rx="2.15" ry="2.15"/><path class="cls-4" d="M49.82,37.92V49.27a2.14,2.14,0,0,1-2.13,2.14H36.39a2.14,2.14,0,0,1-2.13-2.14V37.92a2.14,2.14,0,0,1,2.13-2.14h11.3A2.14,2.14,0,0,1,49.82,37.92Z"/><path class="cls-4" d="M67.69,38.14V49.49a2.14,2.14,0,0,1-2.13,2.14H54.25a2.14,2.14,0,0,1-2.13-2.14V38.14A2.14,2.14,0,0,1,54.25,36h11.3A2.14,2.14,0,0,1,67.69,38.14Z"/><rect class="cls-6" x="16.27" y="17.9" width="15.19" height="15.19" rx="2.08" ry="2.08"/><rect class="cls-7" x="34.16" y="17.9" width="15.19" height="15.19" rx="2.08" ry="2.08"/><rect class="cls-6" x="34.16" width="15.19" height="15.19" rx="2.08" ry="2.08"/><rect class="cls-7" x="16.27" y="35.79" width="15.19" height="15.19" rx="2.08" ry="2.08"/><rect class="cls-1" x="34.16" y="35.79" width="15.19" height="15.19" rx="2.08" ry="2.08"/><rect class="cls-1" x="52.06" y="17.9" width="15.19" height="15.19" rx="2.08" ry="2.08"/><rect class="cls-7" x="52.06" width="15.19" height="15.19" rx="2.08" ry="2.08"/><rect class="cls-1" x="52.06" y="36" width="15.19" height="15.19" rx="2.08" ry="2.08"/><rect class="cls-8" x="16.27" width="7.49" height="7.49" rx="2.08" ry="2.08"/><text class="cls-9" transform="translate(0 130.89)">@UL-FRI</text></g></g></svg>