<svg xmlns="http://www.w3.org/2000/svg" viewBox="0 0 289.61 76.34"><defs><style>.cls-1{fill:#4d4d4d;}.cls-2{fill:#b3b3b3;}.cls-3{fill:gray;}.cls-4{fill:#444;}.cls-5{fill:#c1272d;}.cls-6{fill:#ccc;}.cls-7{fill:#999;}.cls-8{fill:#666;}.cls-9{fill:#ef1209;}</style></defs><title>Asset 5</title><g id="Layer_2" data-name="Layer 2"><g id="Layer_1-2" data-name="Layer 1"><path class="cls-1" d="M118.29,2.5H90.65V36.23h27.64a6.08,6.08,0,0,0,6.09-6.09V8.59a5.87,5.87,0,0,0-1.78-4.31A5.87,5.87,0,0,0,118.29,2.5Zm1,27.64a1,1,0,0,1-1,1H96.74a1,1,0,0,1-1-1V8.59a1,1,0,0,1,1-1h21.55a1,1,0,0,1,1,1Z"/><path class="cls-1" d="M150.05,9.06H128.5v5.06h21.55a1,1,0,0,1,1,1v5H128.5v10a6.08,6.08,0,0,0,6.09,6.09h21.55V15.15a6.08,6.08,0,0,0-6.09-6.09Zm1,22.11H134.59a1,1,0,0,1-1-1v-5h17.52Z"/><path class="cls-1" d="M199.89,9.06H165.18V.16h-5.06v30a6.08,6.08,0,0,0,6.09,6.09h10.12V31.17H166.21a1,1,0,0,1-1-1v-16h34.71a1,1,0,0,1,1,1v5H178.34v10a6.08,6.08,0,0,0,6.09,6.09H206V15.15a6.08,6.08,0,0,0-6.09-6.09Zm1,22.11H184.44a1,1,0,0,1-1-1v-5h17.52Z"/><path class="cls-1" d="M118.29,41.91H96.74A6.08,6.08,0,0,0,90.65,48v7.21a6.08,6.08,0,0,0,6.09,6.09h21.55a1,1,0,0,1,1,1v7.21a1,1,0,0,1-1,1H96.74a1,1,0,0,1-1-1v-2H90.65v2a6.08,6.08,0,0,0,6.09,6.09h21.55a6.08,6.08,0,0,0,6.09-6.09V62.33a6.08,6.08,0,0,0-6.09-6.09H96.74a1,1,0,0,1-1-1V48a1,1,0,0,1,1-1h21.55a1,1,0,0,1,1,1v2h5.06V48a6.08,6.08,0,0,0-6.09-6.09Z"/><path class="cls-1" d="M133.59,70.27a1,1,0,0,1-.3-.73v-15a1,1,0,0,1,1-1h21.46V48.47H134.31a6.08,6.08,0,0,0-6.09,6.09v15a6.08,6.08,0,0,0,6.09,6.09h21.55V70.58H134.31A1,1,0,0,1,133.59,70.27Z"/><rect class="cls-1" x="159.89" y="48.47" width="5.06" height="27.17"/><rect class="cls-1" x="159.89" y="39.57" width="5.06" height="5.06"/><path class="cls-1" d="M221.82,48.47H200.27V70.58H174.74a1,1,0,0,1-1-1v-5h22.58v-10a6.08,6.08,0,0,0-6.09-6.09H174.74a6.08,6.08,0,0,0-6.09,6.09v15a6.08,6.08,0,0,0,6.09,6.09h30.59V54.56a1,1,0,0,1,1-1h15.46a1,1,0,0,1,1,1V75.64h5.06V54.56a6.08,6.08,0,0,0-6.09-6.09Zm-48.11,6.09a1,1,0,0,1,1-1H190.2a1,1,0,0,1,1,1v5H173.71Z"/><path class="cls-1" d="M236.41,70.27a1,1,0,0,1-.3-.73v-15a1,1,0,0,1,1-1h21.46V48.47H237.14A6.08,6.08,0,0,0,231,54.56v15a6.08,6.08,0,0,0,6.09,6.09h21.55V70.58H237.14A1,1,0,0,1,236.41,70.27Z"/><path class="cls-1" d="M283.51,48.47H268.06A6.08,6.08,0,0,0,262,54.56v15a6.08,6.08,0,0,0,6.09,6.09h21.55V70.58H268.06a1,1,0,0,1-1-1v-5h22.58v-10a6.08,6.08,0,0,0-6.09-6.09Zm1,11.06H267v-5a1,1,0,0,1,1-1h15.46a1,1,0,0,1,1,1Z"/><path class="cls-2" d="M49.76,3.25V20.07a3.17,3.17,0,0,1-3.16,3.17H29.84a3.17,3.17,0,0,1-3.16-3.17V3.25A3.17,3.17,0,0,1,29.84.08H46.6A3.17,3.17,0,0,1,49.76,3.25Z"/><path class="cls-2" d="M23.26,29.75V46.57a3.17,3.17,0,0,1-3.16,3.17H3.34A3.17,3.17,0,0,1,.18,46.57V29.75a3.17,3.17,0,0,1,3.16-3.17H20.1A3.17,3.17,0,0,1,23.26,29.75Z"/><path class="cls-3" d="M76.26,3.25V20.07a3.17,3.17,0,0,1-3.16,3.17H56.33a3.17,3.17,0,0,1-3.16-3.17V3.25A3.17,3.17,0,0,1,56.33.08H73.09A3.17,3.17,0,0,1,76.26,3.25Z"/><path class="cls-3" d="M49.76,29.75V46.57a3.17,3.17,0,0,1-3.16,3.17H29.84a3.17,3.17,0,0,1-3.16-3.17V29.75a3.17,3.17,0,0,1,3.16-3.17H46.6A3.17,3.17,0,0,1,49.76,29.75Z"/><rect class="cls-3" x="0.02" y="52.92" width="23.09" height="23.17" rx="3.17" ry="3.17"/><path class="cls-4" d="M76.26,29.75V46.57a3.17,3.17,0,0,1-3.16,3.17H56.33a3.17,3.17,0,0,1-3.16-3.17V29.75a3.17,3.17,0,0,1,3.16-3.17H73.09A3.17,3.17,0,0,1,76.26,29.75Z"/><rect class="cls-5" x="0.16" y="0.16" width="11.49" height="11.49" rx="3.19" ry="3.19"/><path class="cls-4" d="M49.76,56.24V73.07a3.17,3.17,0,0,1-3.16,3.17H29.84a3.17,3.17,0,0,1-3.16-3.17V56.24a3.17,3.17,0,0,1,3.16-3.17H46.6A3.17,3.17,0,0,1,49.76,56.24Z"/><rect class="cls-4" x="53.17" y="53.17" width="23.09" height="23.17" rx="3.17" ry="3.17"/><rect class="cls-6" y="26.54" width="22.53" height="22.53" rx="3.09" ry="3.09"/><rect class="cls-7" x="26.54" y="26.54" width="22.53" height="22.53" rx="3.09" ry="3.09"/><rect class="cls-6" x="26.54" width="22.53" height="22.53" rx="3.09" ry="3.09"/><rect class="cls-7" x="0.01" y="52.77" width="22.53" height="22.53" rx="3.09" ry="3.09"/><rect class="cls-8" x="26.54" y="53.08" width="22.53" height="22.53" rx="3.09" ry="3.09"/><rect class="cls-8" x="53.08" y="26.54" width="22.53" height="22.53" rx="3.09" ry="3.09"/><rect class="cls-7" x="53.08" width="22.53" height="22.53" rx="3.09" ry="3.09"/><rect class="cls-8" x="53.08" y="53.17" width="22.53" height="22.53" rx="3.09" ry="3.09"/><rect class="cls-9" width="11.11" height="11.11" rx="3.09" ry="3.09"/></g></g></svg>