<svg xmlns="http://www.w3.org/2000/svg" viewBox="0 0 290.71 76.34"><defs><style>.cls-1{fill:#666;}.cls-2{fill:#b3b3b3;}.cls-3{fill:gray;}.cls-4{fill:#444;}.cls-5{fill:#c1272d;}.cls-6{fill:#ccc;}.cls-7{fill:#999;}.cls-8{fill:#ef1209;}</style></defs><title>Asset 6</title><g id="Layer_2" data-name="Layer 2"><g id="Layer_1-2" data-name="Layer 1"><path class="cls-1" d="M118.44,2.36H90.65V36.27h27.79a6.11,6.11,0,0,0,6.12-6.12V8.48a5.9,5.9,0,0,0-1.79-4.33A5.91,5.91,0,0,0,118.44,2.36Zm1,27.79a1,1,0,0,1-1,1H96.77a1,1,0,0,1-1-1V8.48a1,1,0,0,1,1-1h21.67a1,1,0,0,1,1,1Z"/><path class="cls-1" d="M150.38,9H128.71V14h21.67a1,1,0,0,1,1,1v5H128.71V30.15a6.11,6.11,0,0,0,6.12,6.12H156.5V15.07A6.11,6.11,0,0,0,150.38,9Zm1,22.23H134.84a1,1,0,0,1-1-1v-5h17.62Z"/><path class="cls-1" d="M200.5,9H165.6V0h-5.09V30.15a6.11,6.11,0,0,0,6.12,6.12h10.17V31.18H166.63a1,1,0,0,1-1-1V14h34.9a1,1,0,0,1,1,1v5H178.83V30.15A6.11,6.11,0,0,0,185,36.27h21.67V15.07A6.11,6.11,0,0,0,200.5,9Zm1,22.23H185a1,1,0,0,1-1-1v-5h17.62Z"/><path class="cls-1" d="M118.44,42H96.77a6.11,6.11,0,0,0-6.12,6.12v7.25a6.11,6.11,0,0,0,6.12,6.12h21.67a1,1,0,0,1,1,1v7.25a1,1,0,0,1-1,1H96.77a1,1,0,0,1-1-1v-2H90.65v2a6.11,6.11,0,0,0,6.12,6.12h21.67a6.11,6.11,0,0,0,6.12-6.12V62.52a6.11,6.11,0,0,0-6.12-6.12H96.77a1,1,0,0,1-1-1V48.1a1,1,0,0,1,1-1h21.67a1,1,0,0,1,1,1v2h5.09v-2A6.11,6.11,0,0,0,118.44,42Z"/><path class="cls-1" d="M133.82,70.5a1,1,0,0,1-.31-.73V54.7a1,1,0,0,1,1-1h21.57V48.57H134.55a6.11,6.11,0,0,0-6.12,6.12V69.77a6.11,6.11,0,0,0,6.12,6.12h21.67V70.81H134.55A1,1,0,0,1,133.82,70.5Z"/><rect class="cls-1" x="160.27" y="48.57" width="5.09" height="27.32"/><rect class="cls-1" x="160.27" y="39.62" width="5.09" height="5.09"/><path class="cls-1" d="M222.55,48.57H200.88V70.81H175.21a1,1,0,0,1-1-1v-5h22.71V54.7a6.11,6.11,0,0,0-6.12-6.12H175.21a6.11,6.11,0,0,0-6.12,6.12V69.77a6.11,6.11,0,0,0,6.12,6.12H206V54.7a1,1,0,0,1,1-1h15.54a1,1,0,0,1,1,1v21.2h5.09V54.7a6.11,6.11,0,0,0-6.12-6.12ZM174.17,54.7a1,1,0,0,1,1-1h15.54a1,1,0,0,1,1,1v5H174.17Z"/><path class="cls-1" d="M237.22,70.5a1,1,0,0,1-.31-.73V54.7a1,1,0,0,1,1-1h21.57V48.57H238a6.11,6.11,0,0,0-6.12,6.12V69.77A6.11,6.11,0,0,0,238,75.89h21.67V70.81H238A1,1,0,0,1,237.22,70.5Z"/><path class="cls-1" d="M284.58,48.57H269a6.11,6.11,0,0,0-6.12,6.12V69.77A6.11,6.11,0,0,0,269,75.89h21.67V70.81H269a1,1,0,0,1-1-1v-5h22.71V54.7a6.11,6.11,0,0,0-6.12-6.12Zm1,11.12H268v-5a1,1,0,0,1,1-1h15.54a1,1,0,0,1,1,1Z"/><path class="cls-2" d="M49.76,3.25V20.07a3.17,3.17,0,0,1-3.16,3.17H29.84a3.17,3.17,0,0,1-3.16-3.17V3.25A3.17,3.17,0,0,1,29.84.08H46.6A3.17,3.17,0,0,1,49.76,3.25Z"/><path class="cls-2" d="M23.26,29.75V46.57a3.17,3.17,0,0,1-3.16,3.17H3.34A3.17,3.17,0,0,1,.18,46.57V29.75a3.17,3.17,0,0,1,3.16-3.17H20.1A3.17,3.17,0,0,1,23.26,29.75Z"/><path class="cls-3" d="M76.26,3.25V20.07a3.17,3.17,0,0,1-3.16,3.17H56.33a3.17,3.17,0,0,1-3.16-3.17V3.25A3.17,3.17,0,0,1,56.33.08H73.09A3.17,3.17,0,0,1,76.26,3.25Z"/><rect class="cls-3" x="26.67" y="26.57" width="23.09" height="23.17" rx="3.17" ry="3.17"/><path class="cls-3" d="M23.11,56.1V72.92a3.17,3.17,0,0,1-3.16,3.17H3.18A3.17,3.17,0,0,1,0,72.92V56.1a3.17,3.17,0,0,1,3.16-3.17H19.94A3.17,3.17,0,0,1,23.11,56.1Z"/><path class="cls-4" d="M76.26,29.75V46.57a3.17,3.17,0,0,1-3.16,3.17H56.33a3.17,3.17,0,0,1-3.16-3.17V29.75a3.17,3.17,0,0,1,3.16-3.17H73.09A3.17,3.17,0,0,1,76.26,29.75Z"/><rect class="cls-5" x="0.16" y="0.16" width="11.49" height="11.49" rx="3.19" ry="3.19"/><path class="cls-4" d="M49.76,56.24V73.07a3.17,3.17,0,0,1-3.16,3.17H29.84a3.17,3.17,0,0,1-3.16-3.17V56.24a3.17,3.17,0,0,1,3.16-3.17H46.6A3.17,3.17,0,0,1,49.76,56.24Z"/><path class="cls-4" d="M76.26,56.35V73.17a3.17,3.17,0,0,1-3.16,3.17H56.33a3.17,3.17,0,0,1-3.16-3.17V56.35a3.17,3.17,0,0,1,3.16-3.17H73.09A3.17,3.17,0,0,1,76.26,56.35Z"/><rect class="cls-6" y="26.54" width="22.53" height="22.53" rx="3.09" ry="3.09"/><rect class="cls-7" x="26.54" y="26.54" width="22.53" height="22.53" rx="3.09" ry="3.09"/><rect class="cls-6" x="26.54" width="22.53" height="22.53" rx="3.09" ry="3.09"/><rect class="cls-7" x="0.01" y="52.77" width="22.53" height="22.53" rx="3.09" ry="3.09"/><rect class="cls-1" x="26.54" y="53.08" width="22.53" height="22.53" rx="3.09" ry="3.09"/><rect class="cls-1" x="53.08" y="26.54" width="22.53" height="22.53" rx="3.09" ry="3.09"/><rect class="cls-7" x="53.08" width="22.53" height="22.53" rx="3.09" ry="3.09"/><rect class="cls-1" x="53.08" y="53.17" width="22.53" height="22.53" rx="3.09" ry="3.09"/><rect class="cls-8" width="11.11" height="11.11" rx="3.09" ry="3.09"/></g></g></svg>