<svg xmlns="http://www.w3.org/2000/svg" viewBox="0 0 127.6 169.34"><defs><style>.cls-1{fill:#666;}.cls-2{fill:#b3b3b3;}.cls-3{fill:gray;}.cls-4{fill:#444;}.cls-5{fill:#c1272d;}.cls-6{fill:#ccc;}.cls-7{fill:#999;}.cls-8{fill:#ef1209;}</style></defs><title>Asset 6</title><g id="Layer_2" data-name="Layer 2"><g id="Layer_1-2" data-name="Layer 1"><path class="cls-1" d="M30.58,105.2H0v37.32H30.58a6.72,6.72,0,0,0,6.74-6.74V111.94a6.72,6.72,0,0,0-6.74-6.74Zm1.14,30.58a1.15,1.15,0,0,1-1.14,1.14H6.74a1.15,1.15,0,0,1-1.14-1.14V111.94a1.15,1.15,0,0,1,1.14-1.14H30.58a1.15,1.15,0,0,1,1.14,1.14Z"/><path class="cls-1" d="M65.72,112.46H41.88v5.6H65.72a1.15,1.15,0,0,1,1.14,1.14v5.49h-25v11.09a6.73,6.73,0,0,0,6.74,6.74H72.45V119.19a6.72,6.72,0,0,0-6.74-6.74Zm1.14,24.46H48.61a1.15,1.15,0,0,1-1.14-1.14v-5.49H66.86Z"/><path class="cls-1" d="M120.86,112.46H82.46v-9.85h-5.6v33.17a6.72,6.72,0,0,0,6.74,6.74H94.79v-5.6H83.6a1.15,1.15,0,0,1-1.14-1.14V118.05h38.4a1.15,1.15,0,0,1,1.14,1.14v5.49H97v11.09a6.73,6.73,0,0,0,6.74,6.74H127.6V119.19a6.72,6.72,0,0,0-6.74-6.74ZM122,136.92H103.76a1.15,1.15,0,0,1-1.14-1.14v-5.49H122Z"/><path class="cls-1" d="M17.73,147.7H3.91a3.76,3.76,0,0,0-2.76,1.14A3.76,3.76,0,0,0,0,151.61v4.63A3.77,3.77,0,0,0,1.14,159a3.77,3.77,0,0,0,2.76,1.14H17.73a.67.67,0,0,1,.66.66v4.63a.67.67,0,0,1-.66.66H3.91a.67.67,0,0,1-.66-.66v-1.26H0v1.26a3.76,3.76,0,0,0,1.14,2.76,3.76,3.76,0,0,0,2.76,1.14H17.73a3.9,3.9,0,0,0,3.91-3.91V160.8a3.9,3.9,0,0,0-3.91-3.91H3.91a.67.67,0,0,1-.66-.66v-4.63a.67.67,0,0,1,.66-.66H17.73a.67.67,0,0,1,.66.66v1.26h3.24v-1.26a3.9,3.9,0,0,0-3.91-3.91Z"/><path class="cls-1" d="M27.54,165.9a.64.64,0,0,1-.19-.47v-9.61a.67.67,0,0,1,.66-.66H41.76v-3.24H28a3.9,3.9,0,0,0-3.91,3.91v9.61A3.9,3.9,0,0,0,28,169.34H41.82v-3.24H28A.64.64,0,0,1,27.54,165.9Z"/><rect class="cls-1" x="44.41" y="151.91" width="3.24" height="17.43"/><rect class="cls-1" x="44.41" y="146.2" width="3.24" height="3.24"/><path class="cls-1" d="M84.12,151.91H70.3v14.18H53.93a.67.67,0,0,1-.66-.66v-3.18H67.75v-6.43a3.9,3.9,0,0,0-3.91-3.91H53.93A3.9,3.9,0,0,0,50,155.82v9.61a3.9,3.9,0,0,0,3.91,3.91H73.55V155.82a.67.67,0,0,1,.66-.66h9.91a.67.67,0,0,1,.66.66v13.52H88V155.82a3.9,3.9,0,0,0-3.91-3.91Zm-30.85,3.91a.67.67,0,0,1,.66-.66h9.91a.67.67,0,0,1,.66.66V159H53.27Z"/><path class="cls-1" d="M93.48,165.9a.64.64,0,0,1-.2-.47v-9.61a.67.67,0,0,1,.66-.66h13.76v-3.24H93.95A3.9,3.9,0,0,0,90,155.82v9.61a3.9,3.9,0,0,0,3.91,3.91h13.82v-3.24H93.95A.64.64,0,0,1,93.48,165.9Z"/><path class="cls-1" d="M123.69,151.91h-9.91a3.9,3.9,0,0,0-3.91,3.91v9.61a3.9,3.9,0,0,0,3.91,3.91H127.6v-3.24H113.78a.67.67,0,0,1-.66-.66v-3.18H127.6v-6.43a3.9,3.9,0,0,0-3.91-3.91Zm.66,7.09H113.12v-3.18a.67.67,0,0,1,.66-.66h9.91a.67.67,0,0,1,.66.66Z"/><path class="cls-2" d="M75.89,3.33V20.57a3.25,3.25,0,0,1-3.24,3.25H55.48a3.25,3.25,0,0,1-3.24-3.25V3.33A3.25,3.25,0,0,1,55.48.08H72.65A3.25,3.25,0,0,1,75.89,3.33Z"/><path class="cls-2" d="M48.74,30.48V47.71A3.25,3.25,0,0,1,45.5,51H28.33a3.25,3.25,0,0,1-3.24-3.25V30.48a3.25,3.25,0,0,1,3.24-3.25H45.5A3.25,3.25,0,0,1,48.74,30.48Z"/><path class="cls-3" d="M103,3.33V20.57a3.25,3.25,0,0,1-3.24,3.25H82.63a3.25,3.25,0,0,1-3.24-3.25V3.33A3.25,3.25,0,0,1,82.63.08H99.8A3.25,3.25,0,0,1,103,3.33Z"/><path class="cls-3" d="M75.89,30.48V47.71A3.25,3.25,0,0,1,72.65,51H55.48a3.25,3.25,0,0,1-3.24-3.25V30.48a3.25,3.25,0,0,1,3.24-3.25H72.65A3.25,3.25,0,0,1,75.89,30.48Z"/><path class="cls-3" d="M48.58,57.79V75a3.25,3.25,0,0,1-3.24,3.25H28.17A3.25,3.25,0,0,1,24.93,75V57.79a3.25,3.25,0,0,1,3.24-3.25H45.34A3.25,3.25,0,0,1,48.58,57.79Z"/><path class="cls-4" d="M103,30.48V47.71A3.25,3.25,0,0,1,99.8,51H82.63a3.25,3.25,0,0,1-3.24-3.25V30.48a3.25,3.25,0,0,1,3.24-3.25H99.8A3.25,3.25,0,0,1,103,30.48Z"/><rect class="cls-5" x="25.08" y="0.17" width="11.77" height="11.77" rx="3.27" ry="3.27"/><path class="cls-4" d="M75.89,57.62V74.86a3.25,3.25,0,0,1-3.24,3.25H55.48a3.25,3.25,0,0,1-3.24-3.25V57.62a3.25,3.25,0,0,1,3.24-3.25H72.65A3.25,3.25,0,0,1,75.89,57.62Z"/><path class="cls-4" d="M103,58V75.19a3.25,3.25,0,0,1-3.24,3.25H82.63a3.25,3.25,0,0,1-3.24-3.25V58a3.25,3.25,0,0,1,3.24-3.25H99.8A3.25,3.25,0,0,1,103,58Z"/><rect class="cls-6" x="24.91" y="27.19" width="23.08" height="23.08" rx="3.16" ry="3.16"/><rect class="cls-7" x="52.1" y="27.19" width="23.08" height="23.08" rx="3.16" ry="3.16"/><rect class="cls-6" x="52.1" width="23.08" height="23.08" rx="3.16" ry="3.16"/><rect class="cls-7" x="24.91" y="54.38" width="23.08" height="23.08" rx="3.16" ry="3.16"/><rect class="cls-1" x="52.1" y="54.38" width="23.08" height="23.08" rx="3.16" ry="3.16"/><rect class="cls-1" x="79.3" y="27.19" width="23.08" height="23.08" rx="3.16" ry="3.16"/><rect class="cls-7" x="79.3" width="23.08" height="23.08" rx="3.16" ry="3.16"/><path class="cls-1" d="M102.38,57.86V74.62a3.16,3.16,0,0,1-3.16,3.16H82.46a3.16,3.16,0,0,1-3.16-3.16V57.86a3.16,3.16,0,0,1,3.16-3.16H99.22A3.16,3.16,0,0,1,102.38,57.86Z"/><rect class="cls-8" x="24.91" width="11.38" height="11.38" rx="3.16" ry="3.16"/></g></g></svg>